<?xml version="1.0" encoding="utf-8"?><svg viewBox="0 0 140 60" xmlns="http://www.w3.org/2000/svg" xmlns:xlink="http://www.w3.org/1999/xlink"><style>:root>svg{display:none}:root>svg:target{display:block}</style><svg fill="none" viewBox="0 0 140 35" id="arrow" xmlns="http://www.w3.org/2000/svg"><path d="M138.973 34.282a.75.75 0 00.777-.723l.241-6.745a.75.75 0 00-1.5-.054l-.214 5.996-5.996-.214a.75.75 0 10-.053 1.499l6.745.24zM1.322 13.209C16.453 6.016 40.7.413 66.202 2.03c25.492 1.617 52.165 10.44 72.249 32.013l1.098-1.022C119.133 11.093 92.056 2.167 66.297.533 40.55-1.1 16.047 4.548.678 11.855l.644 1.354z" fill="currentColor"/></svg><svg fill="none" viewBox="0 0 38 38" id="benefits-1" xmlns="http://www.w3.org/2000/svg"><path d="M11.083 11.083h8.709M11.083 17.417h4.75M15.833 33.25H7.917a3.176 3.176 0 01-3.167-3.167V7.917A3.176 3.176 0 017.917 4.75h19a3.176 3.176 0 013.166 3.167v6.333" stroke="currentColor" stroke-width="2" stroke-miterlimit="10" stroke-linecap="round" stroke-linejoin="round"/><path d="M19 22.167L25.333 19l6.334 3.167v4.75c0 3.483-2.85 6.333-6.334 6.333C21.85 33.25 19 30.4 19 26.917v-4.75z" stroke="currentColor" stroke-width="2" stroke-miterlimit="10" stroke-linecap="round" stroke-linejoin="round"/></svg><svg fill="none" viewBox="0 0 38 38" id="benefits-10" xmlns="http://www.w3.org/2000/svg"><path d="M14.688 27.7l-4.091-4.137.874-.865 1.688 1.707 1.776-1.756-1.688-1.707.873-.863 4.09 4.137-.872.863-1.69-1.709-1.776 1.756 1.69 1.71-.874.864zm5.006-2.977l-1.675-1.695.28-.277a1.45 1.45 0 00-.025-.551 2.618 2.618 0 00-.313-.725 7.142 7.142 0 00-.746-.997l-1.612-1.865 2.737-2.706 3.402 3.44.452-.448 1.672 1.691-.84.831-.983-.994-2.495 2.467.987.998-.84.831zm-.385-2.971l1.592-1.574-2.688-2.72-1.11 1.097.953 1.093c.252.29.463.561.632.813.17.25.305.482.406.697.1.212.172.41.215.594zm5.098-8.98l-.885.875a1.217 1.217 0 00-.4-.207 1.09 1.09 0 00-.42-.04c-.14.014-.28.054-.415.122a1.46 1.46 0 00-.379.275c-.214.212-.348.45-.402.713-.055.262-.026.537.086.826.11.287.308.574.592.861.291.295.58.5.866.614.287.112.561.141.821.087.26-.055.495-.186.704-.392.117-.116.21-.239.279-.368a1.095 1.095 0 00.111-.813 1.206 1.206 0 00-.183-.403l.89-.87a2.323 2.323 0 01.471 1.552c-.017.287-.09.575-.222.865-.132.287-.33.562-.596.825a2.745 2.745 0 01-1.237.728 2.5 2.5 0 01-1.404-.046c-.48-.152-.942-.452-1.387-.902-.446-.451-.74-.919-.884-1.403a2.495 2.495 0 01-.024-1.407c.126-.454.37-.861.734-1.22.24-.238.495-.424.766-.559.273-.136.553-.219.84-.246.285-.03.57 0 .853.087.284.086.56.235.825.446z" fill="currentColor"/><path d="M21.375 6.333h6.967c1.9 0 3.325 1.425 3.325 3.325v6.967c0 .95-.317 1.742-.95 2.375l-13.3 13.3c-1.267 1.267-3.484 1.267-4.75 0L5.7 25.333c-1.267-1.266-1.267-3.483 0-4.75L19 7.283c.792-.633 1.583-.95 2.375-.95z" stroke="currentColor" stroke-width="2" stroke-linecap="round" stroke-linejoin="round"/><path d="M21 6l-5.5 27" stroke="currentColor"/></svg><svg fill="none" viewBox="0 0 37 37" id="benefits-11" xmlns="http://www.w3.org/2000/svg"><path d="M25.592 20.196c-.308 0-.617.308-.617.616 0 .309.308.617.617.617.308 0 .616-.308.616-.616 0-.309-.308-.617-.616-.617z" stroke="currentColor" stroke-width="2" stroke-miterlimit="10" stroke-linecap="round" stroke-linejoin="round"/><path d="M4.625 7.708v20.813a3.092 3.092 0 003.083 3.083h21.584a3.092 3.092 0 003.083-3.083V13.104a3.092 3.092 0 00-3.083-3.083H6.937c-1.233 0-2.312-1.08-2.312-2.313zm0 0c0-1.233 1.08-2.312 2.313-2.312h19.27" stroke="currentColor" stroke-width="2" stroke-miterlimit="10" stroke-linecap="round" stroke-linejoin="round"/></svg><svg fill="none" viewBox="0 0 37 37" id="benefits-12" xmlns="http://www.w3.org/2000/svg"><path d="M22.171 22.718v6.343c0 1.547-1.237 2.939-2.939 2.939H7.939C6.392 32 5 30.763 5 29.06V6.94C5 5.391 6.238 4 7.94 4h11.292c1.547 0 2.94 1.238 2.94 2.94v3.248M10.26 28.133h6.806" stroke="currentColor" stroke-width="2" stroke-linecap="round" stroke-linejoin="round"/><path d="M16.602 10.343H30.99c1.083 0 2.01.928 2.01 2.01v8.2c0 1.083-.927 2.01-2.01 2.01H16.602c-1.083 0-2.01-.927-2.01-2.01v-8.2c-.156-1.082.772-2.01 2.01-2.01zM14.437 14.983H33" stroke="currentColor" stroke-width="2" stroke-miterlimit="10" stroke-linecap="round" stroke-linejoin="round"/></svg><svg fill="none" viewBox="0 0 38 38" id="benefits-2" xmlns="http://www.w3.org/2000/svg"><path d="M15.938 21.718c-1.875-1.875-3.282-3.905-4.063-5.937-.156-.469-.156-.938.313-1.25l1.25-1.25c1.093-1.094 1.093-2.5.156-3.438L11.719 7.97c-1.25-1.25-3.125-1.25-4.375 0L6.25 9.062a5.194 5.194 0 00-1.406 4.532c.781 4.062 3.125 8.594 7.031 12.344 3.75 3.75 8.281 6.25 12.344 7.03 1.719.313 3.281-.156 4.531-1.25l1.094-1.093c1.25-1.25 1.25-3.125 0-4.375l-1.875-1.875c-.938-.938-2.344-.938-3.281 0l-1.407 1.406c-.312.313-.78.47-1.25.313-2.343-1.25-4.375-2.657-6.093-4.376zM32.813 14.063V4.687h-9.376M23.438 14.063l9.375-9.376" stroke="currentColor" stroke-width="2" stroke-miterlimit="10" stroke-linecap="round" stroke-linejoin="round"/></svg><svg fill="none" viewBox="0 0 38 38" id="benefits-3" xmlns="http://www.w3.org/2000/svg"><path clip-rule="evenodd" d="M27.234 22.8v-7.6c0-.633-.317-1.108-.792-1.425l-6.65-3.8a1.438 1.438 0 00-1.584 0l-6.65 3.8c-.474.317-.791.792-.791 1.425v7.6c0 .633.317 1.109.792 1.425l6.65 3.8a1.439 1.439 0 001.583 0l6.65-3.8c.475-.316.792-.792.792-1.425z" stroke="currentColor" stroke-width="2" stroke-miterlimit="10" stroke-linecap="round" stroke-linejoin="round"/><path d="M11.875 4.75H7.917A3.176 3.176 0 004.75 7.917v3.958M4.75 26.125v3.958a3.176 3.176 0 003.167 3.167h3.958M26.125 33.25h3.958a3.176 3.176 0 003.167-3.167v-3.958M33.25 11.875V7.917a3.176 3.176 0 00-3.167-3.167h-3.958M19 28.183V19M11.083 14.409L19 19l8.075-4.591" stroke="currentColor" stroke-width="2" stroke-miterlimit="10" stroke-linecap="round" stroke-linejoin="round"/></svg><svg fill="none" viewBox="0 0 38 38" id="benefits-4" xmlns="http://www.w3.org/2000/svg"><path d="M22.483 11.242l5.7-5.7v-.317c-3.166-1.425-7.125-.792-9.816 1.9-2.534 2.533-3.325 6.333-2.059 9.342L5.542 27.233c-1.425 1.425-1.425 3.642 0 5.067 1.425 1.425 3.641 1.425 5.066 0l10.767-10.767c3.167 1.267 6.808.476 9.342-2.058 2.691-2.692 3.325-6.65 1.9-9.817 0-.158-.159-.158-.317 0l-5.858 5.7-2.059-2.058-1.9-2.058z" stroke="currentColor" stroke-width="2" stroke-miterlimit="10" stroke-linecap="round" stroke-linejoin="round"/></svg><svg fill="none" viewBox="0 0 38 38" id="benefits-5" xmlns="http://www.w3.org/2000/svg"><path d="M16.625 33.25h4.75M21.375 4.75h-4.75M4.75 16.625v4.75M33.25 21.375v-4.75" stroke="currentColor" stroke-width="2" stroke-linecap="round" stroke-linejoin="round"/><path d="M14.725 23.433l8.708-8.708M14.25 16.625a2.375 2.375 0 100-4.75 2.375 2.375 0 000 4.75zM23.75 26.125a2.375 2.375 0 100-4.75 2.375 2.375 0 000 4.75z" stroke="currentColor" stroke-width="2" stroke-miterlimit="10" stroke-linecap="round" stroke-linejoin="round"/><path d="M33.25 9.5V6.65c0-1.108-.792-1.9-1.9-1.9H28.5M4.75 28.5v2.85c0 1.108.792 1.9 1.9 1.9H9.5M9.5 4.75H6.65c-1.108 0-1.9.792-1.9 1.9V9.5M28.5 33.25h2.85c1.108 0 1.9-.792 1.9-1.9V28.5" stroke="currentColor" stroke-width="2" stroke-linecap="round" stroke-linejoin="round"/></svg><svg fill="none" viewBox="0 0 38 38" id="benefits-6" xmlns="http://www.w3.org/2000/svg"><path d="M18.208 20.742a3.958 3.958 0 100-7.917 3.958 3.958 0 000 7.917z" stroke="currentColor" stroke-width="2" stroke-linecap="round" stroke-linejoin="round"/><path d="M33.25 22.167V9.658a3.176 3.176 0 00-3.167-3.166H6.333a3.176 3.176 0 00-3.166 3.166v14.25a3.176 3.176 0 003.166 3.167h13.142M7.917 22.325h3.166M25.333 11.242H28.5" stroke="currentColor" stroke-width="2" stroke-miterlimit="10" stroke-linecap="round" stroke-linejoin="round"/><path d="M24.383 23.75C21.375 23.908 19 26.283 19 29.292c0 3.008 2.533 5.541 5.542 5.541 2.216 0 4.116-1.266 4.908-3.166" stroke="currentColor" stroke-width="2" stroke-miterlimit="10" stroke-linecap="round" stroke-linejoin="round"/><path d="M29.45 31.508c-3.008 0-5.542-2.533-5.542-5.541 0-3.009 2.534-5.542 5.542-5.542s5.542 2.533 5.542 5.542c-.159 3.008-2.534 5.541-5.542 5.541z" stroke="currentColor" stroke-width="2" stroke-miterlimit="10" stroke-linecap="round" stroke-linejoin="round"/></svg><svg fill="none" viewBox="0 0 38 38" id="benefits-7" xmlns="http://www.w3.org/2000/svg"><path d="M25.333 3.167V9.5M12.667 3.167V9.5M4.75 14.25h28.5M30.083 6.333H7.917A3.176 3.176 0 004.75 9.5v20.583a3.176 3.176 0 003.167 3.167h22.166a3.176 3.176 0 003.167-3.167V9.5a3.176 3.176 0 00-3.167-3.167zM11.083 20.583h15.834M11.083 26.917h15.834" stroke="currentColor" stroke-width="2" stroke-miterlimit="10" stroke-linecap="round" stroke-linejoin="round"/></svg><svg fill="none" viewBox="0 0 38 38" id="benefits-8" xmlns="http://www.w3.org/2000/svg"><path d="M31.667 32.933l-3.642-3.483M9.975 29.45l-3.642 3.483M30.729 25.429c2.677-6.463-.392-13.873-6.856-16.55C17.41 6.202 10 9.27 7.323 15.734c-2.677 6.463.392 13.873 6.855 16.55 6.464 2.678 13.873-.392 16.55-6.855zM5.383 9.183l4.75-3.958M32.617 9.183l-4.75-3.958" stroke="currentColor" stroke-width="2" stroke-miterlimit="10" stroke-linecap="round" stroke-linejoin="round"/><path d="M18.683 14.883v6.65l5.067 3.009" stroke="currentColor" stroke-width="2" stroke-miterlimit="10" stroke-linecap="round" stroke-linejoin="round"/></svg><svg fill="none" viewBox="0 0 38 38" id="benefits-9" xmlns="http://www.w3.org/2000/svg"><path d="M14.688 27.7l-4.091-4.137.874-.865 1.688 1.707 1.776-1.756-1.688-1.707.873-.863 4.09 4.137-.872.863-1.69-1.709-1.776 1.756 1.69 1.71-.874.864zm5.006-2.977l-1.675-1.695.28-.277a1.45 1.45 0 00-.025-.551 2.618 2.618 0 00-.313-.725 7.142 7.142 0 00-.746-.997l-1.612-1.865 2.737-2.706 3.402 3.44.452-.448 1.672 1.691-.84.831-.983-.994-2.495 2.467.987.998-.84.831zm-.385-2.971l1.592-1.574-2.688-2.72-1.11 1.097.953 1.093c.252.29.463.561.632.813.17.25.305.482.406.697.1.212.172.41.215.594zm5.098-8.98l-.885.875a1.217 1.217 0 00-.4-.207 1.09 1.09 0 00-.42-.04c-.14.014-.28.054-.415.122a1.46 1.46 0 00-.379.275c-.214.212-.348.45-.402.713-.055.262-.026.537.086.826.11.287.308.574.592.861.291.295.58.5.866.614.287.112.561.141.821.087.26-.055.495-.186.704-.392.117-.116.21-.239.279-.368a1.095 1.095 0 00.111-.813 1.206 1.206 0 00-.183-.403l.89-.87a2.323 2.323 0 01.471 1.552c-.017.287-.09.575-.222.865-.132.287-.33.562-.596.825a2.745 2.745 0 01-1.237.728 2.5 2.5 0 01-1.404-.046c-.48-.152-.942-.452-1.387-.902-.446-.451-.74-.919-.884-1.403a2.495 2.495 0 01-.024-1.407c.126-.454.37-.861.734-1.22.24-.238.495-.424.766-.559.273-.136.553-.219.84-.246.285-.03.57 0 .853.087.284.086.56.235.825.446z" fill="currentColor"/><path d="M21.375 6.333h6.967c1.9 0 3.325 1.425 3.325 3.325v6.967c0 .95-.317 1.742-.95 2.375l-13.3 13.3c-1.267 1.267-3.484 1.267-4.75 0L5.7 25.333c-1.267-1.266-1.267-3.483 0-4.75L19 7.283c.792-.633 1.583-.95 2.375-.95z" stroke="currentColor" stroke-width="2" stroke-linecap="round" stroke-linejoin="round"/></svg><svg fill="none" viewBox="0 0 25 32" id="calculator" xmlns="http://www.w3.org/2000/svg"><path fill-rule="evenodd" clip-rule="evenodd" d="M2.216.09c-.54.132-.944.356-1.35.752a2.667 2.667 0 00-.79 1.396c-.102.475-.101 27.053.002 27.52.235 1.074 1.12 1.937 2.22 2.167.479.1 19.918.1 20.403 0 1.088-.223 1.996-1.108 2.223-2.166.102-.477.1-27.055-.002-27.52C24.686 1.161 23.8.295 22.703.07 22.185-.035 2.651-.017 2.215.09zm20.346 1.912a.873.873 0 01.382.372c.125.239.129.362.129 3.998v3.752H1.927L1.93 6.36c.003-4.233-.019-4.038.484-4.335l.25-.148h9.823c9.718 0 9.825.001 10.075.126zM11.539 16.06v4.062H1.927v-8.124h9.612v4.062zm11.534 0v4.062H13.46v-8.124h9.612v4.062zM6.269 13.378c-.368.19-.497.496-.497 1.18v.565h-.58c-.453 0-.633.028-.832.126-.284.142-.51.502-.51.812 0 .31.226.67.51.811.199.099.379.126.833.126h.579v.565c0 .443.028.618.129.812.145.277.514.498.832.498.318 0 .687-.221.832-.498.101-.194.13-.37.13-.812v-.565h.578c.455 0 .634-.027.833-.126.284-.141.51-.501.51-.811 0-.31-.226-.67-.51-.812-.199-.098-.378-.126-.833-.126h-.579v-.564c0-.696-.128-.994-.51-1.184a.94.94 0 00-.915.003zm9.612 1.874c-.27.14-.498.508-.498.809 0 .31.227.67.512.811.238.119.374.126 2.372.126 1.998 0 2.134-.007 2.373-.126.284-.141.51-.501.51-.811 0-.31-.226-.67-.51-.812-.24-.119-.372-.125-2.386-.123-1.998.003-2.149.01-2.373.126zM11.539 26.06v4.062H2.682l-.256-.14a1.015 1.015 0 01-.377-.373c-.116-.22-.122-.422-.122-3.921v-3.69h9.612v4.062zm11.534-.372c0 3.574-.004 3.697-.13 3.936a.874.874 0 01-.381.372c-.246.122-.37.126-4.677.126h-4.424v-8.124h9.612v3.69zm-7.192-2.311c-.27.14-.498.508-.498.808 0 .31.227.67.512.812.238.119.374.126 2.372.126 1.998 0 2.134-.008 2.373-.126.284-.142.51-.502.51-.812 0-.31-.226-.67-.51-.811-.24-.119-.372-.126-2.386-.123-1.998.002-2.149.01-2.373.126zm-10.99.558a.946.946 0 00-.4 1.159c.036.091.242.346.459.566l.394.4-.394.4c-.217.22-.423.475-.459.566-.301.773.458 1.514 1.251 1.22.094-.035.355-.236.581-.447l.41-.384.41.384c.226.211.487.413.58.447.794.294 1.553-.447 1.252-1.22-.036-.091-.242-.346-.459-.566l-.394-.4.394-.4c.217-.22.423-.475.459-.566.301-.773-.458-1.514-1.251-1.22-.094.035-.355.236-.58.447l-.411.384-.41-.384c-.226-.211-.487-.412-.58-.447-.27-.1-.625-.074-.853.061zm10.99 3.191c-.27.14-.498.508-.498.809 0 .31.227.67.512.811.238.119.374.126 2.372.126 1.998 0 2.134-.007 2.373-.126.284-.141.51-.501.51-.811 0-.31-.226-.67-.51-.812-.24-.119-.372-.125-2.386-.123-1.998.003-2.149.01-2.373.126z" fill="currentColor"/></svg><svg fill="none" viewBox="0 0 19 18" id="circular-arrow" xmlns="http://www.w3.org/2000/svg"><path d="M17.5 9c0 2-.8 4.1-2.3 5.6-3.1 3.1-8.2 3.1-11.3 0-.6-.6-1-1.2-1.4-1.8M1.5 8.9c0-2 .8-4 2.3-5.5C6.9.3 12 .3 15.1 3.4c.6.6 1 1.2 1.4 1.8" stroke="currentColor" stroke-width="1.5" stroke-miterlimit="10" stroke-linecap="round" stroke-linejoin="round"/><path d="M13.5 5.2H17V1.6M5.6 12.8H2v3.6" stroke="currentColor" stroke-width="1.5" stroke-linecap="round" stroke-linejoin="round"/></svg><svg fill="none" viewBox="0 0 15 17" id="compare" xmlns="http://www.w3.org/2000/svg"><path d="M1 15.245v-5.087M5.333 15.245V6.088M9.666 15.245V1M14 15.245V8.123" stroke="currentColor" stroke-width="2" stroke-linecap="round" stroke-linejoin="round"/></svg><svg fill="none" viewBox="0 0 60 60" id="contract" xmlns="http://www.w3.org/2000/svg"><path fill-rule="evenodd" clip-rule="evenodd" d="M1.887.23A3.255 3.255 0 00.254 1.695L0 2.164v55.68l.254.469c.299.553.874 1.118 1.448 1.423.395.21 1.178.22 21.06.249 22.713.033 21.231.079 22.148-.676.234-.193.563-.625.73-.96l.304-.61V46.573l-.272-.255a.986.986 0 00-1.38.048l-.285.302-.029 5.236c-.016 2.88-.056 5.354-.09 5.498-.15.652.994.618-21.007.618H2.622l-.343-.343-.343-.342V2.704l.284-.329.283-.329 20.283-.03c14.306-.022 20.373.006 20.59.095.169.07.367.242.44.382.096.184.142 2.992.162 9.947l.03 9.691.284.302c.378.402 1.034.417 1.397.032l.255-.272V2.268l-.31-.62C45.28.936 44.51.31 43.75.119 43.413.035 36.841-.002 22.861 0 3.031.006 2.448.012 1.887.23zm7.72 5.86c-.578.232-.63.473-.63 2.962 0 2.311.002 2.325.289 2.612l.288.287h26.843l.238-.263c.353-.392.406-.644.225-1.075a.876.876 0 00-.544-.521c-.276-.096-3.853-.133-12.863-.133h-12.48V7.966h25.424l.238-.264c.353-.391.406-.644.225-1.075a.876.876 0 00-.544-.52c-.463-.162-26.311-.178-26.71-.018zm46.14 6.22c-.63.314-1.078.757-1.482 1.464-.316.555-.363.59-.737.546-.22-.026-.504.01-.632.078-.128.069-.765 1.036-1.415 2.15-1.617 2.771-1.38 2.536-2.161 2.154-.618-.302-.671-.309-1.07-.142-.291.121-.447.277-.507.505-.176.67-.028.952.753 1.438l.498.31-4.234 7.32-4.233 7.322-1.052 2.8c-.579 1.54-1.367 3.401-1.751 4.135-.63 1.201-.7 1.405-.7 2.042 0 .46.087.91.248 1.283l.248.575-1.03 1.264c-.566.695-1.066 1.307-1.111 1.36-.045.052-.253-.33-.462-.848-.591-1.463-1.403-2.045-2.553-1.83-.427.08-1.21.748-1.508 1.285-.097.175-.169-.274-.316-1.968-.212-2.44-.32-2.758-1.124-3.303-.756-.514-1.893-.335-2.508.395-.44.522-2.981 8.157-2.867 8.612.104.41.732.813 1.131.724.162-.036.4-.183.528-.327.134-.149.738-1.81 1.405-3.864.643-1.981 1.201-3.602 1.24-3.602.04 0 .139.883.221 1.963.084 1.1.225 2.143.32 2.372.64 1.54 2.525 1.75 3.485.39.197-.278.391-.505.433-.505.042 0 .223.372.401.826.406 1.033.75 1.447 1.412 1.7.613.233 1.226.16 1.777-.212.201-.136.911-.939 1.577-1.785l1.21-1.537.672.048c.534.039.8-.01 1.3-.238.782-.358 1.091-.684 2.008-2.118.4-.627 1.527-2.103 2.501-3.279l1.773-2.138 4.255-7.385c2.34-4.062 4.27-7.402 4.289-7.423.08-.088.996.467 1.164.707.38.543.255.846-1.882 4.547-1.136 1.966-2.093 3.744-2.127 3.95-.05.31.005.442.31.747.311.31.432.359.737.298.201-.04.434-.13.518-.199.236-.196 4.388-7.435 4.513-7.868.388-1.352-.166-2.642-1.5-3.494l-.73-.466 1.288-2.225c1.368-2.365 1.515-2.809 1.06-3.22-.222-.201-.22-.217.18-.944.505-.916.61-1.668.358-2.531-.382-1.304-1.485-2.104-2.887-2.096-.523.003-.917.079-1.234.237zm-43.446 2.015c-.354.393-.405.644-.222 1.084.127.302.273.427.615.527.32.093 3.382.12 10.582.095l10.131-.035.284-.33c.37-.429.368-.944-.005-1.317l-.288-.287H12.539l-.238.263zm45.375-.032c.375.374.408.758.117 1.357-.144.297-.326.565-.406.596-.108.041-1.385-.6-1.688-.849-.083-.068.577-1.092.78-1.21.34-.198.947-.144 1.197.106zm-2.182 3.302c.911.525 1.677.971 1.701.992.035.029-1.782 3.254-1.933 3.431-.03.034-3.256-1.779-3.435-1.93-.047-.04 1.893-3.443 1.965-3.446.025 0 .79.428 1.702.953zm-38.878 3.51c-.406.163-.59.456-.593.948-.003.33.07.49.305.674.308.242.354.243 11.682.243h11.373l.288-.287c.395-.395.389-.984-.015-1.363l-.303-.284-11.227-.023c-7.045-.014-11.332.02-11.51.091zm36.457 2.013c.597.338 1.085.661 1.085.718 0 .081-7.412 12.976-7.848 13.654-.08.125-.47-.052-1.79-.81a210.58 210.58 0 01-1.722-.997c-.027-.02 4.931-8.651 7.688-13.384l.288-.495.607.35c.334.193 1.095.627 1.692.964zm-45.355 3.92c-.354.07-.735.58-.735.982 0 .181.127.478.283.658l.283.33h20.773l.303-.285a.967.967 0 000-1.424l-.303-.284L18.151 27c-5.594-.008-10.289.009-10.433.037zm24.085-.001c-.765.195-1.027 1.154-.46 1.686l.303.284h7.746l.284-.329c.361-.42.361-.914 0-1.335l-.283-.328-3.678-.02c-2.023-.01-3.783.009-3.912.042zM7.51 32.138c-.602.345-.716 1.088-.24 1.564l.288.287H18.334l.31-.309c.42-.42.407-.9-.034-1.34l-.343-.344-5.261.004c-3.736.003-5.329.043-5.495.138zm14.023.01c-.637.322-.714 1.163-.147 1.609.282.221.484.232 4.131.232 3.69 0 3.844-.009 4.09-.237.535-.498.43-1.28-.215-1.605-.416-.21-7.442-.21-7.859.001zm22.329 6.442c.566.322 1.057.632 1.093.69.035.057-.504.787-1.198 1.622l-1.262 1.519-.653-.371-.974-.553c-.177-.1-.322-.213-.323-.252 0-.086 1.285-3.518 1.369-3.654.033-.053.253.019.49.159.236.14.892.518 1.458.84zm-33.125.62c-3.198.676-5.696 3.074-6.53 6.267-.306 1.171-.28 3.107.054 4.274.843 2.931 3.022 5.107 5.953 5.944.714.204 1.237.267 2.224.269 1.6.002 2.254-.152 3.797-.893 1.012-.486 1.366-.733 2.123-1.484 1.538-1.524 2.425-3.401 2.553-5.402.064-.983.057-1.016-.26-1.33-.698-.696-1.698-.175-1.701.888-.005 1.462-.755 3.18-1.875 4.299-1.299 1.295-2.78 1.919-4.578 1.926-3.676.014-6.52-2.826-6.505-6.498.007-1.795.631-3.276 1.928-4.573a6.386 6.386 0 015.985-1.691c.683.16 1.04.316 2.6 1.13.393.205.463.21.846.049.445-.186.593-.49.524-1.08-.077-.665-1.966-1.735-3.719-2.106-.97-.206-2.418-.2-3.42.01zm29.877 4.46c.413.231.752.445.752.474 0 .19-.512.998-.729 1.15-.626.438-1.516-.002-1.53-.758-.008-.414.425-1.286.638-1.286.064 0 .455.19.868.42zm-24.479.955c-.097.037-1.036.885-2.087 1.885l-1.91 1.817-1.212-1.19c-.994-.978-1.275-1.191-1.564-1.191-.498 0-.972.498-.972 1.02 0 .354.152.56 1.242 1.676.684.7 1.427 1.36 1.652 1.467.472.223 1.236.25 1.73.062.454-.173 4.045-3.712 4.248-4.186.227-.531.021-1.068-.494-1.282-.215-.09-.406-.16-.424-.154-.018.005-.112.04-.209.076z" fill="currentColor"/></svg><svg fill="none" viewBox="0 0 24 24" id="credit-card" xmlns="http://www.w3.org/2000/svg"><path d="M3 7H2M4 4H2M17 20H3M17.3 4l-1 3.3c-.1.4-.5.7-1 .7h-3.1c-.7 0-1.2-.6-1-1.3L12 4M8 13h2.2" stroke="currentColor" stroke-width="1.5" stroke-miterlimit="10" stroke-linecap="round" stroke-linejoin="round"/><path d="M17.5 16H6.9c-1.6 0-2.8-1.5-2.3-3.1l2.2-7.2C7.1 4.7 8 4 9.1 4h10.6c1.6 0 2.8 1.5 2.3 3.1l-2.2 7.2c-.3 1-1.3 1.7-2.3 1.7z" stroke="currentColor" stroke-width="1.5" stroke-miterlimit="10" stroke-linecap="round" stroke-linejoin="round"/></svg><svg fill="none" viewBox="0 0 14 10" id="email" xmlns="http://www.w3.org/2000/svg"><path d="M12.28 3.333L7 6.667 1.72 3.333v3.334l2.61-.848-2.372 2.26c.178.17.356.226.593.226h8.78a.93.93 0 00.593-.226L9.55 5.82l2.61.848V3.333h.119zM2.67 1.695c-.238 0-.416.056-.534.226l4.923 3.107 4.924-3.107c-.178-.113-.356-.226-.534-.226H2.67zM11.39 10H2.61C1.186 10 0 8.87 0 7.514V2.486C0 1.13 1.186 0 2.61 0h8.78C12.814 0 14 1.13 14 2.486v5.028C14 8.87 12.814 10 11.39 10z" fill="currentColor"/></svg><svg fill="none" viewBox="0 0 67 60" id="lacation-map" xmlns="http://www.w3.org/2000/svg"><path fill-rule="evenodd" clip-rule="evenodd" d="M31.97.12c-3.581.377-7.16 2.418-9.397 5.36-.813 1.07-1.972 3.428-2.317 4.717-.938 3.5-.349 7.874 1.572 11.683.22.437.371.825.334.861-.036.037-.577-.205-1.201-.537-.625-.332-1.298-.604-1.497-.604-.229 0-2.828 1.372-7.09 3.743-3.7 2.058-6.809 3.822-6.908 3.92-.173.17-3.945 20.555-3.945 21.323 0 .41.534.895.985.895.724 0 .822-.248 1.452-3.67.326-1.766.632-3.251.682-3.301.189-.192 12.51-6.657 12.57-6.597.09.089-.903 12.956-1.007 13.072-.14.156-13.807 6.265-13.872 6.2-.033-.032.037-.586.154-1.23.299-1.631.282-1.911-.13-2.236-.423-.332-.845-.347-1.217-.043-.233.19-.361.666-.745 2.77-.255 1.396-.43 2.678-.387 2.848.11.433.78.76 1.23.6.193-.068 3.856-1.701 8.142-3.629 6.734-3.028 7.837-3.487 8.12-3.377.18.07 3.817 1.7 8.083 3.62C29.846 58.428 33.397 60 33.47 60c.073 0 3.626-1.571 7.893-3.492 4.268-1.92 7.907-3.55 8.088-3.62.283-.11 1.394.354 8.25 3.444 5.095 2.297 8.08 3.575 8.365 3.58.466.01.933-.393.933-.804 0-.246-3.902-21.87-4.009-22.215-.04-.13-.265-.328-.5-.44-.387-.185-.463-.184-.837.01-.227.117-.447.35-.489.517-.041.167.285 2.297.725 4.734.44 2.436.783 4.5.762 4.586-.03.12-10.386-11.765-12.31-14.126l-.352-.433 4.322-.957 4.32-.957.614.38.614.38.292 1.552c.318 1.689.517 2.124 1.033 2.254.414.104.982-.28 1.105-.745.108-.41-.59-4.172-.816-4.396-.414-.41-13.655-7.652-13.991-7.652-.198 0-.867.27-1.487.6-.62.33-1.128.565-1.128.521 0-.044.2-.476.443-.96 1.843-3.665 2.433-8.182 1.51-11.561-.354-1.301-1.515-3.654-2.334-4.733A13.79 13.79 0 0034.904.111c-1.454-.15-1.432-.15-2.934.009zm4.09 2.165c4.84.968 8.73 5.333 9.175 10.3.392 4.36-1.395 9.026-5.365 14.014-1.452 1.824-3.532 4.065-5.034 5.422-1.08.975-1.27 1.1-1.5.976-.495-.265-4.266-4.12-5.547-5.67-3.117-3.771-5.035-7.414-5.778-10.97-.27-1.293-.27-3.71 0-5.012.787-3.786 3.489-7.011 7.1-8.478 2.195-.89 4.454-1.08 6.949-.582zM32.88 8.03c-.178.177-.322.474-.322.661 0 .49.544.983 1.086.983 1.151 0 2.547.769 3.248 1.787 1.448 2.107.642 4.973-1.704 6.055-1.982.915-4.413-.001-5.331-2.01-.666-1.454-.533-2.79.414-4.147.32-.458.582-.984.583-1.169.002-.491-.446-.909-.976-.909-.358 0-.536.107-.928.557-2.352 2.702-1.761 6.977 1.24 8.983 1.036.692 2.032.985 3.35.985s2.314-.293 3.35-.985a6.023 6.023 0 00.917-9.288c-.865-.866-1.993-1.473-3.14-1.691-1.083-.206-1.431-.17-1.788.188zM22.817 25.393l1.589.815 1.195 1.53a57.33 57.33 0 001.94 2.356c.628.7.694.817.424.756-.175-.039-2.028-.312-4.117-.607s-3.832-.576-3.874-.625c-.06-.07.309-5.318.386-5.506.01-.024.21.071.443.212.234.14 1.14.621 2.014 1.07zm23.883-.404v.754L44.07 26.89c-1.448.63-2.653 1.128-2.677 1.103-.024-.024.267-.455.647-.958.66-.875.774-.959 2.579-1.91 1.038-.546 1.931-.97 1.985-.942.054.029.098.391.098.805zm-28.418-.274c0 .902-.403 5.21-.491 5.246-.054.021-2.691 1.413-5.86 3.092-3.17 1.68-5.781 3.04-5.804 3.022-.08-.063.923-5.368 1.04-5.498.124-.139 10.85-6.185 11.017-6.21.054-.009.098.148.098.348zm30.929-.107c.428.261.409.295-.252.44-.252.057-.294.012-.294-.315 0-.452.006-.453.546-.125zm4.851 2.708c1 .549 1.787 1.03 1.748 1.068-.038.039-1.57.405-3.403.815l-3.333.744-.077-.862a91.98 91.98 0 00-.136-1.418c-.053-.49-.025-.564.232-.628.827-.208 2.927-.697 3.03-.707.066-.005.939.439 1.939.988zm-7.1.935c.001.198.119 1.835.262 3.637.144 1.802.261 3.436.261 3.632.001.333-.139.247-2.17-1.343-1.195-.935-2.283-1.7-2.418-1.7-.136 0-2.06.793-4.278 1.76l-4.032 1.76-.042-.537c-.038-.502.001-.574.59-1.067a44.346 44.346 0 001.743-1.604l1.114-1.076 4.321-1.907c2.377-1.048 4.396-1.908 4.486-1.911.092-.003.164.153.164.356zm-21.588 4.198l5.193.75.927.786.927.786.002.834.003.834-.557-.077c-.306-.042-2.132-.262-4.058-.49-3.278-.386-3.522-.399-3.828-.198a.965.965 0 00-.354 1.196c.077.17 2.09 3.383 4.472 7.139l4.33 6.83-.035 2.327-.036 2.327-6.465-9.833-6.466-9.833.087-1.249c.177-2.56.228-2.887.454-2.882.116.002 2.548.341 5.404.753zm-7.672.192c-.034.163-.099.86-.144 1.55l-.082 1.257-6.222 3.29-6.22 3.289.086-.614c.048-.337.185-1.108.306-1.713l.219-1.1 5.893-3.12c3.241-1.716 5.968-3.123 6.06-3.127.104-.004.142.103.104.288zm38.558 9.41c3.71 4.32 6.85 7.989 6.978 8.155.152.195.39 1.157.677 2.721.244 1.331.433 2.43.421 2.44-.019.018-3.07-3.657-12.79-15.406l-1.897-2.294-.133-1.743c-.073-.959-.102-1.739-.066-1.734.036.005 3.101 3.543 6.81 7.861zm-11.09-5.494c1.31 1.019 2.425 1.89 2.478 1.938.105.094 1.054 11.952.99 12.36-.03.19-1.15.749-4.684 2.338l-4.645 2.09-2.387-2.458-2.387-2.458-.007-6.103-.007-6.103 3.962-1.724c2.178-.949 4.039-1.727 4.134-1.728.095-.002 1.244.83 2.553 1.848zm-15.2 1.567l2.456.29v4.332c0 2.389-.05 4.276-.111 4.207-.197-.22-5.782-9.086-5.782-9.178 0-.049.22-.055.49-.015.271.04 1.597.205 2.947.364zm-4.97 9.753c3.131 4.757 5.675 8.67 5.654 8.693-.047.052-12.125-5.347-12.292-5.495-.068-.06.056-2.4.296-5.582.399-5.29.506-6.41.604-6.312.025.025 2.608 3.939 5.738 8.696zm31.303.917c3.345 4.037 6.044 7.354 5.998 7.372-.095.038-11.434-5.048-11.558-5.184-.071-.078-.78-8.822-.772-9.52.002-.162.05-.21.128-.131.068.068 2.86 3.427 6.204 7.463zm-20.313 5.88l1.395 1.487-1.268.557c-.698.306-1.342.586-1.432.623-.127.051-.164-.409-.164-2.045 0-1.161.017-2.111.037-2.111.02 0 .664.67 1.432 1.488z" fill="currentColor"/></svg><svg fill="none" viewBox="0 0 11 15" id="location" xmlns="http://www.w3.org/2000/svg"><path fill-rule="evenodd" clip-rule="evenodd" d="M0 6.217c0 4.045 5.444 8.556 5.444 8.556s5.445-4.434 5.445-8.556A5.41 5.41 0 005.444.773 5.41 5.41 0 000 6.217zm3.111 0c0 1.322 1.011 2.333 2.333 2.333 1.323 0 2.334-1.01 2.334-2.333 0-1.322-1.011-2.333-2.334-2.333-1.322 0-2.333 1.01-2.333 2.333z" fill="currentColor"/></svg><svg fill="none" viewBox="0 0 67 49" id="manipulator" xmlns="http://www.w3.org/2000/svg"><path fill-rule="evenodd" clip-rule="evenodd" d="M.701.122C.016.397 0 .51 0 5.027V9.22l.376.51c.59.798 3.325 3.416 3.728 3.569.2.075.625.137.944.137h.58V15.817l1.501 1.53c.826.842 1.562 1.69 1.636 1.886.642 1.682-.88 3.414-2.596 2.953-1.478-.397-2.174-2.152-1.314-3.312l.281-.379-.793-.79-.794-.792-.272.317C2.172 18.52 1.962 20.384 2.74 22c1.613 3.35 6.388 3.313 7.974-.06.294-.626.347-.914.347-1.912 0-1.571-.265-2.093-1.924-3.797l-1.283-1.317v-1.478h.515c.86 0 1.19-.213 2.788-1.797.987-.978 1.58-1.477 1.662-1.396.069.07 3.159 3.797 6.867 8.284l6.74 8.158-1.133 1.14-1.133 1.14-10.636.034-10.637.035-.298.297-.298.297-.036 6.945c-.027 5.17.003 7.04.12 7.322.286.687.622.737 4.955.737 3.631 0 3.941.018 4.012.228.944 2.82 3.433 4.47 6.161 4.085 2.206-.312 3.897-1.792 4.665-4.085.072-.215.756-.228 11.914-.228H45.92l.207.605c.872 2.552 3.454 4.114 6.103 3.693 1.814-.289 3.291-1.374 4.122-3.03.251-.501.457-.992.457-1.09 0-.147.787-.178 4.52-.178 4.818 0 5.235-.048 5.553-.642.104-.193.136-2.098.11-6.508l-.038-6.235-.431-.872c-.469-.95-1.139-1.613-2.112-2.09-.54-.266-.846-.302-3.086-.36l-2.487-.066-2.128-5.283c-1.17-2.905-2.246-5.402-2.392-5.547-.257-.256-.442-.265-6.086-.3l-5.822-.037v-1.308c0-1.214-.022-1.33-.32-1.627-.271-.27-.448-.32-1.114-.32h-.79v-2.475l.49-.252c1.52-.78 2.162-2.7 1.422-4.257-1.026-2.16-3.656-2.647-5.322-.985-1.518 1.513-1.28 3.902.506 5.09l.678.451v2.427h-.71c-1.53 0-1.515-.048-1.515 4.889v3.987h-1.768L23.659 12.033C13.47 1.872 13.351 1.748 13.347 1.232c-.005-.606-.2-.914-.702-1.104C12.205-.04 1.115-.044.701.122zm10.425 5.252v3.163l-1.34 1.34-1.338 1.34H5.044l-1.41-1.4-1.409-1.401V2.21h8.901v3.163zm11.067 8.33l8.647 8.62-1.413 1.388c-.776.764-1.436 1.363-1.466 1.332-.03-.031-3.328-4.02-7.33-8.867l-7.276-8.81-.002-1.142c0-.628.042-1.142.096-1.142s3.989 3.88 8.744 8.62zm17.733-6.565c.554.702.114 1.729-.74 1.729-.609 0-.894-.17-1.093-.648-.467-1.123 1.08-2.035 1.833-1.08zm.26 15.173v6.657H37.96V15.655h2.225v6.657zm14.59 1.468c2.308 5.775 2.379 5.935 2.737 6.14.184.104 1.232.18 3.092.224 2.71.062 2.83.077 3.255.378.585.417.927 1.199.93 2.13l.004.747-1.67.036-1.668.037-.038 1.077-.038 1.077h3.414v2.194l-1.91.045c-1.906.045-1.91.045-2.225.411-.301.35-.316.45-.316 2.186v1.82H56.83l-.158-.489c-.419-1.29-1.175-2.265-2.33-3.004-2.128-1.36-4.835-1.11-6.738.624-.677.617-1.406 1.776-1.579 2.51l-.084.36h-3.53V30.686c0-6.377.04-11.634.088-11.681.048-.048 2.393-.088 5.21-.088h5.124l1.944 4.863zm-9.436-2.456c-.643.28-.704.656-.704 4.34 0 3.738.062 4.078.79 4.331.672.234 6.946.201 7.521-.039.457-.19.681-.625.609-1.183-.047-.363-2.11-6.578-2.324-7.002-.096-.19-.362-.41-.59-.489-.62-.215-4.785-.182-5.302.043zm4.848 4.219c.402 1.202.73 2.232.73 2.287 0 .056-.898.085-1.995.065l-1.997-.036-.036-2.083c-.02-1.145-.007-2.159.029-2.251.046-.121.412-.169 1.301-.169h1.237l.73 2.187zM35.735 26.75v2.219h-8.44l2.222-2.22 2.223-2.218h3.995v2.219zm4.45 9.985v5.547H26.834l-.001-1.729c0-.951-.057-2.071-.125-2.49-.382-2.325-2.28-4.196-4.596-4.53-1.08-.156-9.616-.158-10.69-.003-2.33.336-4.237 2.2-4.616 4.51-.071.431-.13 1.562-.13 2.513v1.73H4.45V31.187h35.735v5.547zm-17.54-.767c.324.153.778.476 1.008.718.744.783.87 1.263.93 3.54l.053 2.056H23.44c-1.023 0-1.207-.033-1.272-.228-1.17-3.492-4.719-5.096-7.861-3.553-1.345.66-2.462 1.997-2.967 3.553-.064.195-.247.228-1.27.228H8.872l.054-2.055c.06-2.279.187-2.764.93-3.536.485-.504.93-.759 1.625-.926.272-.066 2.763-.11 5.535-.097 4.84.022 5.062.034 5.628.3zm-4.514 4.482c2.066.881 2.584 3.737.97 5.347-2.083 2.077-5.645.6-5.645-2.34 0-2.434 2.4-3.978 4.675-3.007zm34.997.194c2.304 1.467 2.018 4.861-.498 5.913-.6.25-1.905.25-2.506 0-1.986-.83-2.69-3.305-1.432-5.035.995-1.37 3.03-1.773 4.436-.878zm11.666.529v1.11h-2.225v-2.22h2.225v1.11z" fill="currentColor"/></svg><svg fill="none" viewBox="0 0 61 52" id="money" xmlns="http://www.w3.org/2000/svg"><path fill-rule="evenodd" clip-rule="evenodd" d="M35.63 4.89c-6.784 2.686-17.344 6.862-23.466 9.28C5.359 16.86.889 18.688.664 18.874c-.203.168-.434.418-.513.556-.112.194-.146 3.86-.15 15.954-.004 17.155-.042 16.21.676 16.504.25.102 6.801.128 25.877.105l25.543-.03.288-.333.287-.331V33.966l3.882-1.52c4.303-1.684 4.543-1.827 4.425-2.65-.033-.23-2.668-6.911-5.855-14.845C50.792 4.166 49.254.458 49.028.259A1.052 1.052 0 0048.346 0c-.21.004-5.932 2.205-12.716 4.89zm17.263 10.95c2.883 7.185 5.26 13.133 5.281 13.219.026.103-.8.49-2.463 1.156-1.376.55-2.623 1.032-2.77 1.07l-.269.068V19.485l-.348-.346c-.192-.19-.454-.345-.584-.345-.196 0-.437-.504-1.458-3.045-1.52-3.783-1.675-4.099-2.102-4.261-.184-.07-.897-.152-1.586-.183-2.027-.09-3.444-.738-4.98-2.282-.633-.635-.815-.753-1.16-.753-.602 0-25.404 9.83-25.803 10.226l-.302.301-3.63-.031-3.63-.031.953-.376 20.257-8.004C38.916 6.16 47.613 2.738 47.627 2.751c.013.014 2.383 5.903 5.266 13.089zm-12.487-4.66c1.185 1.265 3.61 2.356 5.59 2.516l.896.072 1 2.458c.549 1.352.973 2.483.942 2.513-.03.03-6.513.042-14.406.026l-14.35-.03 9.892-3.925c5.44-2.158 9.949-3.928 10.02-3.931.07-.004.257.131.416.3zm9.883 24.227v14.249H2.38V21.159H50.29v14.248zM11.08 23.676c-.297.148-.368.265-1.07 1.765-.742 1.587-2.142 2.869-3.853 3.527-1.43.55-1.328.088-1.367 6.266-.038 6.006-.037 6.01.774 6.332.248.098.85.37 1.34.605 1.551.745 3.016 2.47 3.578 4.212.093.289.281.535.52.68.365.22.798.227 15.412.227h15.037l.341-.285c.211-.176.422-.537.551-.944.292-.919 1.285-2.34 2.111-3.023a8.341 8.341 0 011.507-.948c1.526-.703 1.64-.771 1.791-1.066.118-.23.146-1.517.123-5.755l-.03-5.46-.29-.305c-.158-.168-.347-.305-.42-.305-.285 0-1.92-.861-2.495-1.314-1.071-.843-2.125-2.361-2.404-3.46-.043-.171-.237-.444-.432-.606l-.353-.296-15.037.002c-11.847.002-15.1.034-15.334.15zm29.582 3.07a9.324 9.324 0 003.994 3.963l.864.441V39.707l-.267.078c-.568.167-1.918 1.048-2.66 1.736-.762.708-1.893 2.266-2.192 3.02l-.153.385H12.515l-.314-.621c-.93-1.836-2.564-3.457-4.427-4.39l-.626-.314v-4.225l.001-4.226.867-.441c1.693-.863 3.276-2.43 4.037-3.995l.398-.82 13.884-.002 13.884-.003.444.857zm-15.877 1.692c-2.563.548-4.75 2.69-5.421 5.309-.4 1.565-.105 3.64.732 5.136.578 1.033 1.79 2.205 2.841 2.75 1.253.65 2.075.852 3.457.848 1.006-.002 1.35-.057 2.21-.353 1.81-.622 3.216-1.804 4.07-3.419.576-1.09.81-2.051.81-3.324 0-2.033-.612-3.487-2.092-4.971-.748-.75-1.173-1.069-1.856-1.39-1.554-.733-3.148-.93-4.751-.586zm2.526 2.311c1.439.299 2.716 1.308 3.397 2.684.3.607.333.795.333 1.915 0 1.15-.027 1.3-.38 2.039-.92 1.926-2.887 2.976-5.017 2.678-2.451-.345-4.23-2.56-4.042-5.032.154-2.023 1.558-3.7 3.54-4.225.806-.214 1.35-.229 2.17-.059zM12.39 33.84c-.647.326-.972.849-.972 1.565 0 1.01.72 1.717 1.748 1.717.939 0 1.61-.58 1.783-1.538.115-.634-.33-1.407-1.004-1.744-.292-.146-.643-.266-.779-.266s-.485.12-.776.266zm26.387-.046c-.72.332-1.045.918-.974 1.757.049.592.107.71.545 1.117.441.408.555.454 1.121.453.837 0 1.348-.314 1.662-1.02.671-1.504-.855-3-2.354-2.307zm-25.293 1.11c.286.229.337.51.143.785-.194.275-.63.33-.854.108-.214-.212-.174-.774.066-.913.278-.16.424-.156.645.02zm26.437.09c.287.284.302.51.05.76-.221.22-.66.242-.86.043-.228-.225-.167-.656.121-.856.341-.237.402-.233.689.052z" fill="currentColor"/></svg><svg fill="none" viewBox="0 0 54 55" id="more-btn" xmlns="http://www.w3.org/2000/svg"><g filter="url(#axfilter0_d_45_1573)"><rect x="10" y="9.773" width="34" height="34" rx="3.271" fill="#fff"/></g><path d="M33 25.773l-6 6-6-6" stroke="url(#axpaint0_linear_45_1573)" stroke-linecap="round"/><path d="M31 21.773l-4 4-4-4" stroke="url(#axpaint1_linear_45_1573)" stroke-linecap="round"/><defs><linearGradient id="axpaint0_linear_45_1573" x1="34" y1="25.773" x2="20" y2="25.772" gradientUnits="userSpaceOnUse"><stop stop-color="#B5B5B5" stop-opacity="0"/><stop offset=".49" stop-color="#515151"/><stop offset="1" stop-color="#B5B5B5" stop-opacity="0"/></linearGradient><linearGradient id="axpaint1_linear_45_1573" x1="31.667" y1="21.773" x2="22.333" y2="21.772" gradientUnits="userSpaceOnUse"><stop stop-color="#B5B5B5" stop-opacity="0"/><stop offset=".49" stop-color="#515151"/><stop offset="1" stop-color="#B5B5B5" stop-opacity="0"/></linearGradient><filter id="axfilter0_d_45_1573" x="0" y=".773" width="54" height="54" filterUnits="userSpaceOnUse" color-interpolation-filters="sRGB"><feFlood flood-opacity="0" result="BackgroundImageFix"/><feColorMatrix in="SourceAlpha" values="0 0 0 0 0 0 0 0 0 0 0 0 0 0 0 0 0 0 127 0" result="hardAlpha"/><feOffset dy="1"/><feGaussianBlur stdDeviation="5"/><feComposite in2="hardAlpha" operator="out"/><feColorMatrix values="0 0 0 0 0.308333 0 0 0 0 0.308333 0 0 0 0 0.308333 0 0 0 0.1 0"/><feBlend in2="BackgroundImageFix" result="effect1_dropShadow_45_1573"/><feBlend in="SourceGraphic" in2="effect1_dropShadow_45_1573" result="shape"/></filter></defs></svg><svg fill="none" viewBox="0 0 14 14" id="navigation" xmlns="http://www.w3.org/2000/svg"><path d="M8.863 13.137l4.1-11c.3-.8-.5-1.6-1.3-1.3l-11 4.1c-.9.3-.9 1.7.1 1.9l4.9 1.2 1.2 4.9c.4 1.1 1.7 1.1 2 .2z" fill="currentColor"/></svg><svg fill="none" viewBox="0 0 29 29" id="phone" xmlns="http://www.w3.org/2000/svg"><circle cx="14.198" cy="14.198" r="14.198" fill="currentColor"/><path d="M13.583 15.335c-.937-.937-1.64-1.951-2.03-2.966-.078-.234-.078-.467.156-.623l.625-.625c.547-.546.547-1.248.078-1.716l-.937-.937c-.624-.624-1.561-.624-2.186 0l-.546.547a2.592 2.592 0 00-.703 2.262c.39 2.029 1.562 4.292 3.513 6.164 1.874 1.873 4.138 3.121 6.168 3.512a2.625 2.625 0 002.264-.625l.547-.546c.624-.624.624-1.56 0-2.184l-.937-.937a1.133 1.133 0 00-1.64 0l-.702.703a.608.608 0 01-.625.155 11.544 11.544 0 01-3.045-2.184z" fill="#fff"/></svg><svg fill="none" viewBox="0 0 13 13" id="phone-2" xmlns="http://www.w3.org/2000/svg"><path d="M5.583 7.335c-.937-.937-1.64-1.951-2.03-2.965-.078-.235-.078-.468.157-.625l.624-.624c.547-.546.547-1.248.078-1.716L3.475.468c-.624-.624-1.561-.624-2.186 0l-.546.547A2.592 2.592 0 00.04 3.277C.43 5.306 1.602 7.57 3.553 9.441c1.874 1.873 4.138 3.121 6.168 3.511a2.625 2.625 0 002.264-.623l.547-.547c.624-.624.624-1.56 0-2.184l-.937-.937a1.133 1.133 0 00-1.64 0l-.702.703a.607.607 0 01-.625.155 11.544 11.544 0 01-3.045-2.184z" fill="currentColor"/></svg><svg fill="none" viewBox="0 0 60 60" id="play" xmlns="http://www.w3.org/2000/svg"><circle cx="30" cy="30" r="29.5" stroke="currentColor" stroke-opacity=".4"/><circle cx="30" cy="30" r="26" fill="currentColor"/><path d="M39 30.5l-12.75 7.361V23.14L39 30.5z" fill="#fff"/></svg><svg fill="none" viewBox="0 0 21 21" id="search" xmlns="http://www.w3.org/2000/svg"><path d="M9.55 18.1a8.55 8.55 0 100-17.1 8.55 8.55 0 000 17.1z" stroke="#2C2C2C" stroke-width="1.5" stroke-linecap="round" stroke-linejoin="round"/><path d="M20 20l-4.479-4.479" stroke="currentColor" stroke-width="1.5" stroke-linecap="round" stroke-linejoin="round"/></svg><svg fill="none" viewBox="0 0 24 24" id="shield" xmlns="http://www.w3.org/2000/svg"><path d="M20 11.2c0 4.5-3.4 8.8-8 9.8-4.6-1-8-5.3-8-9.8V7.6c0-.8.5-1.5 1.2-1.9l5-2c1.1-.5 2.4-.5 3.5 0l5 2c.8.3 1.2 1 1.2 1.9v3.6h.1z" stroke="currentColor" stroke-width="1.5" stroke-miterlimit="10" stroke-linecap="round" stroke-linejoin="round"/><path d="M15.3 10.1l-3.8 3.8-2.2-2.3" stroke="currentColor" stroke-width="1.5" stroke-linecap="round" stroke-linejoin="round"/></svg><svg fill="none" viewBox="0 0 27 26" id="telegram" xmlns="http://www.w3.org/2000/svg"><circle cx="13.455" cy="13" r="13" fill="currentColor"/><path d="M6.533 13.243l2.988 1.115 1.165 3.748c.051.253.355.304.558.152l1.671-1.368c.152-.152.406-.152.608 0l2.989 2.179c.203.152.507.05.557-.203L19.3 8.228c.05-.253-.203-.506-.457-.405l-12.31 4.762c-.303.1-.303.557 0 .658zm4.001.557l5.877-3.596c.101-.05.202.101.101.152L11.7 14.864c-.152.152-.304.355-.304.608l-.152 1.216c0 .152-.254.202-.304 0l-.608-2.23c-.152-.252-.05-.556.202-.658z" fill="#fff"/></svg><svg fill="none" viewBox="0 0 8 5" id="triangle" xmlns="http://www.w3.org/2000/svg"><path d="M4 4.773L.536.273h6.928L4 4.773z" fill="currentColor"/></svg><svg fill="none" viewBox="0 0 29 29" id="viber" xmlns="http://www.w3.org/2000/svg"><circle cx="14.789" cy="14.438" r="14.21" fill="currentColor"/><path d="M19.233 7.72a22.015 22.015 0 00-8.229 0c-1.198.26-2.708 1.708-2.968 2.845a16.249 16.249 0 000 6.724c.312 1.137 1.822 2.586 2.968 2.844.052 0 .104.052.104.104v3.258c0 .155.209.258.313.103l1.562-1.603s1.25-1.293 1.458-1.5c0 0 .053-.051.105-.051 1.562.051 3.177-.104 4.739-.363 1.198-.258 2.708-1.706 2.969-2.844a16.25 16.25 0 000-6.723c-.313-1.086-1.823-2.535-3.021-2.793zm.052 9.724c-.26.517-.573.93-1.094 1.19l-.468.155c-.209-.052-.365-.104-.521-.156-1.667-.672-3.23-1.603-4.48-2.947a12.436 12.436 0 01-1.718-2.586c-.208-.466-.416-.88-.573-1.345-.156-.414.105-.828.365-1.138.26-.31.573-.517.937-.672.26-.155.521-.052.73.155.416.517.833 1.034 1.145 1.603.209.362.156.776-.208 1.035a.915.915 0 00-.26.206c-.053.052-.157.104-.209.207a.5.5 0 00-.052.466c.417 1.19 1.198 2.12 2.396 2.637.208.104.364.155.625.155.364-.051.52-.465.781-.672.26-.207.573-.207.885-.052.26.156.521.362.834.57.26.206.52.361.78.568.157.104.21.362.105.62zm-2.187-3.879c-.104 0-.052 0 0 0-.209 0-.26-.103-.313-.258 0-.104 0-.26-.052-.363a.983.983 0 00-.364-.569l-.313-.155c-.156-.051-.26-.051-.417-.051-.156-.052-.208-.155-.208-.31 0-.104.156-.207.26-.207.834.051 1.459.517 1.563 1.5v.206c0 .104-.052.207-.156.207zm-.521-2.276c-.26-.103-.521-.206-.834-.258-.104 0-.26-.052-.364-.052-.156 0-.26-.103-.208-.258 0-.156.104-.259.26-.207.52.051.99.155 1.458.362.938.465 1.459 1.24 1.615 2.275v.673c-.052.207-.417.258-.469 0 0-.052-.052-.155-.052-.207a3 3 0 00-.313-1.345 2.793 2.793 0 00-1.093-.983zm2.812 3.104c-.156 0-.26-.156-.26-.31 0-.311-.052-.621-.104-.932-.209-1.655-1.563-3-3.177-3.258-.26-.052-.521-.052-.73-.103-.156 0-.364 0-.416-.207-.052-.155.104-.31.26-.31h.104c2.136.051.105 0 0 0 2.188.051 4.01 1.5 4.375 3.671.052.362.104.724.104 1.138.105.155 0 .31-.156.31z" fill="#fff"/></svg><svg fill="none" viewBox="0 0 26 26" id="whatsapp" xmlns="http://www.w3.org/2000/svg"><circle cx="13" cy="13" r="13" fill="currentColor"/><path d="M18.152 7.84a6.778 6.778 0 00-4.804-1.99c-3.757 0-6.8 3.033-6.8 6.778 0 1.184.332 2.37.903 3.365L6.5 19.5l3.614-.948a6.954 6.954 0 003.234.806c3.758 0 6.802-3.034 6.802-6.778-.048-1.753-.714-3.46-1.998-4.74zm-1.522 7.205c-.142.379-.808.758-1.141.806a2.667 2.667 0 01-1.047-.048c-.237-.095-.57-.19-.95-.379-1.713-.711-2.807-2.417-2.902-2.56-.095-.094-.713-.9-.713-1.753 0-.853.428-1.232.57-1.422.143-.19.333-.19.476-.19h.333c.095 0 .238-.047.38.285.143.332.476 1.185.524 1.232a.3.3 0 010 .284c-.048.095-.096.19-.19.285-.096.095-.191.237-.239.284-.095.095-.19.19-.095.332.096.19.428.711.952 1.185.665.569 1.189.758 1.379.853.19.095.285.047.38-.047.095-.095.428-.474.524-.664.095-.19.237-.142.38-.095.143.048.999.474 1.141.57.19.094.286.141.333.189.048.142.048.474-.095.853z" fill="#fff"/></svg></svg>